<svg width="18" height="22" viewBox="0 0 18 22" fill="none" xmlns="http://www.w3.org/2000/svg">
<path d="M15.1001 6H2.9001C2.4001 6 1.9001 6.4 1.9001 6.9L1.1001 18.9C1.1001 20 2.0001 21 3.1001 21H14.8001C16.0001 21 16.9001 20 16.8001 18.9L16.1001 6.9C16.0001 6.4 15.6001 6 15.1001 6Z" stroke="#1C4279" stroke-width="1.5" stroke-miterlimit="10" stroke-linecap="round" stroke-linejoin="round"/>
<path fill-rule="evenodd" clip-rule="evenodd" d="M5.25 4C5.25 1.88579 6.88579 0.25 9 0.25C11.1142 0.25 12.75 1.88579 12.75 4V8C12.75 8.41421 12.4142 8.75 12 8.75C11.5858 8.75 11.25 8.41421 11.25 8V4C11.25 2.71421 10.2858 1.75 9 1.75C7.71421 1.75 6.75 2.71421 6.75 4V8C6.75 8.41421 6.41421 8.75 6 8.75C5.58579 8.75 5.25 8.41421 5.25 8V4Z" fill="#1C4279"/>
</svg>
