<?xml version="1.0" encoding="UTF-8"?><svg id="Layer_2" xmlns="http://www.w3.org/2000/svg" viewBox="0 0 19.5 19.5"><defs><style>.cls-1{fill:#032571;}</style></defs><g id="Layer_1-2"><path class="cls-1" d="M6.47,7.97c.27-.27,.68-.29,.98-.07l.08,.07,2.22,2.22,2.22-2.22c.27-.27,.68-.29,.98-.07l.08,.07c.27,.27,.29,.68,.07,.98l-.07,.08-2.75,2.75c-.27,.27-.68,.29-.98,.07l-.08-.07-2.75-2.75c-.29-.29-.29-.77,0-1.06Z"/><path class="cls-1" d="M14.75,12.5c.38,0,.69,.28,.74,.65v.1s0,.5,0,.5c0,.92-.71,1.67-1.61,1.74h-.14s-8,0-8,0c-.92,0-1.67-.71-1.74-1.61v-.14s0-.5,0-.5c0-.41,.34-.75,.75-.75,.38,0,.69,.28,.74,.65v.1s0,.5,0,.5c0,.12,.08,.22,.19,.24h.06s8,0,8,0c.12,0,.22-.08,.24-.19v-.06s0-.5,0-.5c0-.41,.34-.75,.75-.75Z"/><path class="cls-1" d="M13.75,0H5.75C2.57,0,0,2.57,0,5.75v8c0,3.18,2.57,5.75,5.75,5.75H13.75c3.18,0,5.75-2.57,5.75-5.75V5.75c0-3.18-2.57-5.75-5.75-5.75ZM5.75,1.5H13.75c2.35,0,4.25,1.9,4.25,4.25v8c0,2.35-1.9,4.25-4.25,4.25H5.75c-2.35,0-4.25-1.9-4.25-4.25V5.75C1.5,3.4,3.4,1.5,5.75,1.5Z"/><path class="cls-1" d="M9.75,4c.38,0,.69,.28,.74,.65v.1s0,6.5,0,6.5c0,.41-.34,.75-.75,.75-.38,0-.69-.28-.74-.65v-.1s0-6.5,0-6.5c0-.41,.34-.75,.75-.75Z"/></g></svg>