<?xml version="1.0" encoding="UTF-8"?><svg id="Layer_2" xmlns="http://www.w3.org/2000/svg" viewBox="0 0 18.5 19.5"><defs><style>.cls-1{fill:#032571;}</style></defs><g id="Formules"><g><path class="cls-1" d="m18.28,18.22l-1.42-1.42c.34-.52.57-1.1.62-1.73.1-1.11-.3-2.19-1.08-2.98-1.42-1.42-3.89-1.42-5.3,0-.79.79-1.18,1.87-1.08,2.98s.68,2.11,1.6,2.76c.63.44,1.38.66,2.13.66s1.45-.21,2.07-.62l1.4,1.4c.15.15.34.22.53.22s.38-.07.53-.22c.29-.29.29-.77,0-1.06Zm-5.8-1.61c-.57-.4-.91-.99-.97-1.66-.06-.67.18-1.32.65-1.79.42-.42.99-.66,1.59-.66s1.17.23,1.59.66c.47.47.71,1.12.65,1.79-.06.67-.4,1.27-.97,1.66-.75.53-1.8.53-2.55,0Z"/><path class="cls-1" d="m8.75,18H2.75c-.35,0-.68-.14-.92-.4-.24-.26-.36-.59-.33-.95l.76-9.92c0-.13.12-.23.25-.23h12.15c.13,0,.24.1.25.23l.16,2.08c.03.41.4.71.81.69.41-.03.72-.39.69-.81l-.16-2.08c-.07-.91-.84-1.62-1.75-1.62h-2.12v-1.05c0-2.18-1.77-3.95-3.95-3.95s-3.95,1.77-3.95,3.95v1.05h-2.12c-.91,0-1.68.71-1.75,1.62L0,16.54c-.06.76.21,1.52.73,2.08.52.56,1.25.88,2.02.88h6c.41,0,.75-.34.75-.75s-.34-.75-.75-.75ZM6.14,3.95c0-1.35,1.1-2.45,2.45-2.45s2.45,1.1,2.45,2.45v1.05h-4.9v-1.05Z"/></g></g></svg>