<svg width="14" height="14" viewBox="0 0 14 14" fill="none" xmlns="http://www.w3.org/2000/svg">
<path fill-rule="evenodd" clip-rule="evenodd" d="M5.89232 1.60964C4.2226 1.94567 2.83649 3.02836 2.09169 4.5H4.49151C4.77809 3.4743 5.24502 2.49244 5.89232 1.60964ZM1.5 7C1.5 6.47915 1.5709 5.97614 1.70367 5.5H4.27121C4.1096 6.4922 4.1096 7.5078 4.27121 8.5H1.70367C1.5709 8.02386 1.5 7.52085 1.5 7ZM2.09169 9.5C2.83649 10.9716 4.22262 12.0543 5.89235 12.3904C5.24504 11.5076 4.7781 10.5257 4.49152 9.5H2.09169ZM5.53501 9.5C5.84098 10.4652 6.32931 11.3798 7 12.1839C7.67069 11.3798 8.15902 10.4652 8.46499 9.5H5.53501ZM9.50848 9.5C9.2219 10.5257 8.75496 11.5076 8.10765 12.3904C9.77738 12.0543 11.1635 10.9717 11.9083 9.5H9.50848ZM12.2963 8.5H9.72879C9.8904 7.5078 9.8904 6.4922 9.72879 5.5H12.2963C12.4291 5.97614 12.5 6.47915 12.5 7C12.5 7.52085 12.4291 8.02386 12.2963 8.5ZM8.71391 8.5H5.28609C5.10464 7.50995 5.10464 6.49005 5.28609 5.5H8.71391C8.89536 6.49005 8.89536 7.50995 8.71391 8.5ZM9.50849 4.5H11.9083C11.1635 3.02836 9.7774 1.94567 8.10768 1.60964C8.75498 2.49244 9.22191 3.4743 9.50849 4.5ZM7 1.81606C6.3293 2.62013 5.84097 3.53483 5.535 4.5H8.465C8.15903 3.53483 7.6707 2.62013 7 1.81606ZM7 13.5C3.39052 13.5 0.5 10.6095 0.5 7C0.5 3.39052 3.39052 0.5 7 0.5C10.6095 0.5 13.5 3.39052 13.5 7C13.5 10.6095 10.6095 13.5 7 13.5Z" fill="white"/>
</svg>
