<?xml version="1.0" encoding="utf-8"?>
<!-- Generator: Adobe Illustrator 27.1.1, SVG Export Plug-In . SVG Version: 6.00 Build 0)  -->
<svg version="1.1" xmlns="http://www.w3.org/2000/svg" xmlns:xlink="http://www.w3.org/1999/xlink" x="0px" y="0px"
	 viewBox="0 0 566.93 566.93" style="enable-background:new 0 0 566.93 566.93;" xml:space="preserve">
<style type="text/css">
	.st0{fill:#FFFFFF;}
	.st1{fill:#0E7CBD;}
	.st2{fill:#032571;}
</style>
<g id="NBN_x5F_Logo_x5F_Negative">
</g>
<g id="NBN_x5F_Logo_x5F_Positive">
	<g>
		<g>
			<g>
				<polygon class="st1" points="44.15,44.15 133.61,44.15 133.61,0 0,0 0,133.61 44.15,133.61 				"/>
			</g>
			<g>
				<polygon class="st1" points="44.15,522.78 133.61,522.78 133.61,566.93 0,566.93 0,433.32 44.15,433.32 				"/>
			</g>
			<g>
				<polygon class="st1" points="522.78,522.78 433.32,522.78 433.32,566.93 566.93,566.93 566.93,433.32 522.78,433.32 				"/>
			</g>
		</g>
		<g>
			<path class="st2" d="M390.43,1.48c31.21,0,49.41,10.92,49.41,35.05c0,13.59-5.94,21.44-15.13,27.57
				c12.06,5.93,19.34,15.32,19.34,31.6c0,21.06-14.17,37.91-49.4,37.91h-50.36V1.48H390.43z M376.07,51.84h13.4
				c12.83,0,18.58-4.02,18.58-11.68c0-7.85-4.02-12.45-21.44-12.45h-10.53V51.84z M376.07,107.18h15.13
				c14.17,0,21.06-4.79,21.06-14.55c0-10.72-7.28-14.36-23.36-14.36h-12.83V107.18z"/>
			<polygon class="st2" points="321.3,1.48 321.3,133.61 295.64,133.61 248.92,63.34 248.92,133.61 217.13,133.61 217.13,1.48 
				242.41,1.48 289.51,72.69 289.51,1.48 			"/>
			<polygon class="st2" points="565.45,1.48 565.45,133.61 539.79,133.61 493.07,63.34 493.07,133.61 461.28,133.61 461.28,1.48 
				486.56,1.48 533.66,72.69 533.66,1.48 			"/>
		</g>
	</g>
</g>
</svg>
