<svg width="18" height="18" viewBox="0 0 18 18" fill="none" xmlns="http://www.w3.org/2000/svg">
<path fill-rule="evenodd" clip-rule="evenodd" d="M1.75 7.3C1.75 4.23482 4.23482 1.75 7.3 1.75C10.3652 1.75 12.85 4.23482 12.85 7.3C12.85 10.3652 10.3652 12.85 7.3 12.85C4.23482 12.85 1.75 10.3652 1.75 7.3ZM7.3 0.25C3.40639 0.25 0.25 3.40639 0.25 7.3C0.25 11.1936 3.40639 14.35 7.3 14.35C8.97664 14.35 10.5166 13.7647 11.7267 12.7873L16.4697 17.5303C16.7626 17.8232 17.2374 17.8232 17.5303 17.5303C17.8232 17.2374 17.8232 16.7626 17.5303 16.4697L12.7873 11.7267C13.7647 10.5166 14.35 8.97664 14.35 7.3C14.35 3.40639 11.1936 0.25 7.3 0.25Z" fill="#1B3163"/>
</svg>
